<svg width="17" height="17" viewBox="0 0 17 17" fill="none" xmlns="http://www.w3.org/2000/svg">
<path fill-rule="evenodd" clip-rule="evenodd" d="M9 0.999933C9 0.723791 8.77614 0.499933 8.5 0.499933C8.22386 0.499933 8 0.723791 8 0.999933V8H0.999933C0.723791 8 0.499933 8.22386 0.499933 8.5C0.499933 8.77614 0.723791 9 0.999933 9H8V15.9999C8 16.2761 8.22386 16.4999 8.5 16.4999C8.77614 16.4999 9 16.2761 9 15.9999V9H15.9999C16.2761 9 16.4999 8.77614 16.4999 8.5C16.4999 8.22386 16.2761 8 15.9999 8H9V0.999933Z" fill="#1D1F22"/>
</svg>
